<svg width="64" height="64" viewBox="0 0 64 64" fill="none" xmlns="http://www.w3.org/2000/svg">
  <path d="M8 50H56V56H8V50Z" fill="#94B0C2" stroke="#4A708B" stroke-width="2"/>
  <path d="M12 44H52V50H12V44Z" fill="#94B0C2" stroke="#4A708B" stroke-width="2"/>
  <path d="M16 24H20V44H16V24Z" fill="#94B0C2" stroke="#4A708B" stroke-width="2"/>
  <path d="M24 24H28V44H24V24Z" fill="#94B0C2" stroke="#4A708B" stroke-width="2"/>
  <path d="M32 24H36V44H32V24Z" fill="#94B0C2" stroke="#4A708B" stroke-width="2"/>
  <path d="M40 24H44V44H40V24Z" fill="#94B0C2" stroke="#4A708B" stroke-width="2"/>
  <path d="M48 24H52V44H48V24Z" fill="#94B0C2" stroke="#4A708B" stroke-width="2"/>
  <path d="M12 20H52V24H12V20Z" fill="#94B0C2" stroke="#4A708B" stroke-width="2"/>
  <path d="M32 8L56 20H8L32 8Z" fill="#94B0C2" stroke="#4A708B" stroke-width="2"/>
  <path d="M32 14L46 20H18L32 14Z" fill="#94B0C2" stroke="#4A708B" stroke-width="2"/>
</svg>